<svg width="50" height="50" viewBox="0 0 50 50" fill="none" xmlns="http://www.w3.org/2000/svg">
<path d="M43.75 10.9375H6.25C5.38706 10.9375 4.6875 11.6371 4.6875 12.5V17.1875C4.6875 18.0504 5.38706 18.75 6.25 18.75H43.75C44.6129 18.75 45.3125 18.0504 45.3125 17.1875V12.5C45.3125 11.6371 44.6129 10.9375 43.75 10.9375Z" stroke="#0D51A2" stroke-width="2" stroke-linecap="round" stroke-linejoin="round"/>
<path d="M42.1875 18.75V37.5C42.1875 37.9144 42.0229 38.3118 41.7299 38.6049C41.4368 38.8979 41.0394 39.0625 40.625 39.0625H9.375C8.9606 39.0625 8.56317 38.8979 8.27015 38.6049C7.97712 38.3118 7.8125 37.9144 7.8125 37.5V18.75" stroke="#0D51A2" stroke-width="2" stroke-linecap="round" stroke-linejoin="round"/>
<path d="M20.3125 26.5625H29.6875" stroke="#0D51A2" stroke-width="2" stroke-linecap="round" stroke-linejoin="round"/>
</svg>
