<svg width="20" height="20" viewBox="0 0 20 20" fill="none" xmlns="http://www.w3.org/2000/svg">
<path d="M9.04823 2.90137H2.78622C2.31171 2.90137 1.85663 3.08987 1.5211 3.4254C1.18557 3.76093 0.99707 4.216 0.99707 4.69051V17.2145C0.99707 17.689 1.18557 18.1441 1.5211 18.4796C1.85663 18.8152 2.31171 19.0037 2.78622 19.0037H15.3102C15.7848 19.0037 16.2398 18.8152 16.5754 18.4796C16.9109 18.1441 17.0994 17.689 17.0994 17.2145V10.9525" stroke="#717171" stroke-linecap="round" stroke-linejoin="round"/>
<path d="M15.7578 1.55972C16.1137 1.20384 16.5963 1.00391 17.0996 1.00391C17.6029 1.00391 18.0856 1.20384 18.4415 1.55972C18.7974 1.91561 18.9973 2.39829 18.9973 2.90158C18.9973 3.40488 18.7974 3.88756 18.4415 4.24344L9.94304 12.7419L6.36475 13.6365L7.25932 10.0582L15.7578 1.55972Z" stroke="#717171" stroke-linecap="round" stroke-linejoin="round"/>
</svg>
