<svg width="50" height="50" viewBox="0 0 50 50" fill="none" xmlns="http://www.w3.org/2000/svg">
<path d="M42.1875 15.625H7.8125C6.94956 15.625 6.25 16.3246 6.25 17.1875V23.4375C6.25 24.3004 6.94956 25 7.8125 25H42.1875C43.0504 25 43.75 24.3004 43.75 23.4375V17.1875C43.75 16.3246 43.0504 15.625 42.1875 15.625Z" stroke="#0D51A2" stroke-width="2" stroke-linecap="round" stroke-linejoin="round"/>
<path d="M40.625 25V39.0625C40.625 39.4769 40.4604 39.8743 40.1674 40.1674C39.8743 40.4604 39.4769 40.625 39.0625 40.625H10.9375C10.5231 40.625 10.1257 40.4604 9.83265 40.1674C9.53962 39.8743 9.375 39.4769 9.375 39.0625V25" stroke="#0D51A2" stroke-width="2" stroke-linecap="round" stroke-linejoin="round"/>
<path d="M25 15.625V40.625" stroke="#0D51A2" stroke-width="2" stroke-linecap="round" stroke-linejoin="round"/>
<path d="M33.8477 13.4179C31.6211 15.625 25 15.625 25 15.625C25 15.625 25 9.00386 27.207 6.7773C28.0876 5.89669 29.282 5.40198 30.5273 5.40198C31.7727 5.40198 32.9671 5.89669 33.8477 6.7773C34.7283 7.6579 35.223 8.85225 35.223 10.0976C35.223 11.343 34.7283 12.5373 33.8477 13.4179V13.4179Z" stroke="#0D51A2" stroke-width="2" stroke-linecap="round" stroke-linejoin="round"/>
<path d="M16.1522 13.4179C18.3787 15.625 24.9998 15.625 24.9998 15.625C24.9998 15.625 24.9998 9.00386 22.7928 6.7773C21.9122 5.89669 20.7178 5.40198 19.4725 5.40198C18.2271 5.40198 17.0328 5.89669 16.1522 6.7773C15.2716 7.6579 14.7769 8.85225 14.7769 10.0976C14.7769 11.343 15.2716 12.5373 16.1522 13.4179V13.4179Z" stroke="#0D51A2" stroke-width="2" stroke-linecap="round" stroke-linejoin="round"/>
</svg>
