<svg width="19" height="19" viewBox="0 0 19 19" fill="none" xmlns="http://www.w3.org/2000/svg">
<path d="M17.9658 13.7278V16.287C17.9668 16.5245 17.9181 16.7597 17.8229 16.9774C17.7277 17.1951 17.5881 17.3905 17.4131 17.5511C17.238 17.7117 17.0313 17.834 16.8063 17.9101C16.5812 17.9862 16.3427 18.0145 16.1061 17.9931C13.4811 17.7078 10.9596 16.8109 8.7442 15.3742C6.68305 14.0644 4.93556 12.3169 3.62582 10.2558C2.18413 8.03034 1.28694 5.49657 1.00692 2.85976C0.985606 2.62386 1.01364 2.3861 1.08924 2.16163C1.16485 1.93716 1.28636 1.73089 1.44605 1.55596C1.60574 1.38102 1.80011 1.24125 2.01677 1.14555C2.23344 1.04985 2.46766 1.00031 2.70452 1.00008H5.2637C5.6777 0.996008 6.07905 1.14261 6.39295 1.41257C6.70685 1.68252 6.91188 2.05741 6.96983 2.46735C7.07784 3.28635 7.27817 4.09049 7.56697 4.86445C7.68174 5.16978 7.70658 5.50162 7.63855 5.82063C7.57051 6.13965 7.41245 6.43248 7.18309 6.66441L6.0997 7.7478C7.31408 9.88348 9.0824 11.6518 11.2181 12.8662L12.3015 11.7828C12.5334 11.5534 12.8262 11.3954 13.1452 11.3273C13.4643 11.2593 13.7961 11.2841 14.1014 11.3989C14.8754 11.6877 15.6795 11.888 16.4985 11.9961C16.9129 12.0545 17.2914 12.2632 17.5619 12.5825C17.8324 12.9018 17.9762 13.3094 17.9658 13.7278Z" stroke="white" stroke-linecap="round" stroke-linejoin="round"/>
</svg>
