<svg width="19" height="19" viewBox="0 0 19 19" fill="none" xmlns="http://www.w3.org/2000/svg">
<path d="M4.3999 6.95V1H14.5999V6.95" stroke="white" stroke-linecap="round" stroke-linejoin="round"/>
<path d="M4.4 14.6H2.7C2.24913 14.6 1.81673 14.4209 1.49792 14.1021C1.17911 13.7833 1 13.3509 1 12.9V8.65001C1 8.19914 1.17911 7.76674 1.49792 7.44793C1.81673 7.12912 2.24913 6.95001 2.7 6.95001H16.3C16.7509 6.95001 17.1833 7.12912 17.5021 7.44793C17.8209 7.76674 18 8.19914 18 8.65001V12.9C18 13.3509 17.8209 13.7833 17.5021 14.1021C17.1833 14.4209 16.7509 14.6 16.3 14.6H14.6" stroke="white" stroke-linecap="round" stroke-linejoin="round"/>
<path d="M14.5999 11.2H4.3999V18H14.5999V11.2Z" stroke="white" stroke-linecap="round" stroke-linejoin="round"/>
</svg>
