<svg width="50" height="50" viewBox="0 0 50 50" fill="none" xmlns="http://www.w3.org/2000/svg">
<path d="M35.9375 6.25H14.0625C13.1996 6.25 12.5 6.94956 12.5 7.8125V42.1875C12.5 43.0504 13.1996 43.75 14.0625 43.75H35.9375C36.8004 43.75 37.5 43.0504 37.5 42.1875V7.8125C37.5 6.94956 36.8004 6.25 35.9375 6.25Z" stroke="#0D51A2" stroke-width="2" stroke-linecap="round" stroke-linejoin="round"/>
<path d="M25 21.875C27.5888 21.875 29.6875 19.7763 29.6875 17.1875C29.6875 14.5987 27.5888 12.5 25 12.5C22.4112 12.5 20.3125 14.5987 20.3125 17.1875C20.3125 19.7763 22.4112 21.875 25 21.875Z" stroke="#0D51A2" stroke-width="2" stroke-linecap="round" stroke-linejoin="round"/>
<path d="M25 37.5C27.5888 37.5 29.6875 35.4013 29.6875 32.8125C29.6875 30.2237 27.5888 28.125 25 28.125C22.4112 28.125 20.3125 30.2237 20.3125 32.8125C20.3125 35.4013 22.4112 37.5 25 37.5Z" stroke="#0D51A2" stroke-width="2" stroke-linecap="round" stroke-linejoin="round"/>
<path d="M37.5 14.0625H42.1875" stroke="#0D51A2" stroke-width="2" stroke-linecap="round" stroke-linejoin="round"/>
<path d="M37.5 29.6875H42.1875" stroke="#0D51A2" stroke-width="2" stroke-linecap="round" stroke-linejoin="round"/>
<path d="M7.8125 14.0625H12.5" stroke="#0D51A2" stroke-width="2" stroke-linecap="round" stroke-linejoin="round"/>
<path d="M7.8125 29.6875H12.5" stroke="#0D51A2" stroke-width="2" stroke-linecap="round" stroke-linejoin="round"/>
</svg>
