<svg width="50" height="50" viewBox="0 0 50 50" fill="none" xmlns="http://www.w3.org/2000/svg">
<path d="M35.1562 7.8125H40.625C41.0394 7.8125 41.4368 7.97712 41.7299 8.27015C42.0229 8.56317 42.1875 8.9606 42.1875 9.375V14.8438" stroke="#0D51A2" stroke-width="2" stroke-linecap="round" stroke-linejoin="round"/>
<path d="M35.1562 42.1875H40.625C41.0394 42.1875 41.4368 42.0229 41.7299 41.7299C42.0229 41.4368 42.1875 41.0394 42.1875 40.625V35.1562" stroke="#0D51A2" stroke-width="2" stroke-linecap="round" stroke-linejoin="round"/>
<path d="M14.8438 42.1875H9.375C8.9606 42.1875 8.56317 42.0229 8.27015 41.7299C7.97712 41.4368 7.8125 41.0394 7.8125 40.625V35.1562" stroke="#0D51A2" stroke-width="2" stroke-linecap="round" stroke-linejoin="round"/>
<path d="M14.8438 7.8125H9.375C8.9606 7.8125 8.56317 7.97712 8.27015 8.27015C7.97712 8.56317 7.8125 8.9606 7.8125 9.375V14.8438" stroke="#0D51A2" stroke-width="2" stroke-linecap="round" stroke-linejoin="round"/>
<path d="M25 28.125C28.4518 28.125 31.25 25.3268 31.25 21.875C31.25 18.4232 28.4518 15.625 25 15.625C21.5482 15.625 18.75 18.4232 18.75 21.875C18.75 25.3268 21.5482 28.125 25 28.125Z" stroke="#0D51A2" stroke-width="2" stroke-linecap="round" stroke-linejoin="round"/>
<path d="M14.6289 34.3751C15.6277 32.491 17.1209 30.9146 18.9481 29.8151C20.7753 28.7157 22.8675 28.1348 25 28.1348C27.1325 28.1348 29.2247 28.7157 31.0519 29.8151C32.8791 30.9146 34.3723 32.491 35.3711 34.3751" stroke="#0D51A2" stroke-width="2" stroke-linecap="round" stroke-linejoin="round"/>
</svg>
