<svg width="1440" height="676" viewBox="0 0 1440 676" fill="none" xmlns="http://www.w3.org/2000/svg">
<rect x="0.00231934" y="0.999268" width="1440" height="675" fill="url(#paint0_linear_529_2605)"/>
<path d="M159.404 451.655C178.029 439.832 202.616 451.481 205.264 473.383L224.957 636.27C227.792 659.718 203.675 677.094 182.33 666.982L24.1131 592.023C2.76822 581.91 0.939275 552.241 20.8804 539.584L159.404 451.655Z" fill="url(#paint1_linear_529_2605)" fill-opacity="0.5"/>
<path d="M308.14 -68.4417C335.073 -79.1329 364.083 -58.5303 362.863 -29.5788L349.481 287.825C348.144 319.517 312.217 337.119 286.355 318.753L4.46447 118.559C-21.397 100.192 -16.6146 60.4713 12.8673 48.7683L308.14 -68.4417Z" fill="url(#paint2_linear_529_2605)" fill-opacity="0.5"/>
<path d="M605.007 475.056C603.838 460.395 618.361 449.53 632.096 454.789L734.245 493.906C748.95 499.537 751.682 519.165 739.073 528.598L645.617 598.517C633.009 607.95 614.951 599.789 613.699 584.092L605.007 475.056Z" fill="url(#paint3_linear_529_2605)" fill-opacity="0.3"/>
<path d="M1477.14 21.5573C1504.08 10.8661 1533.09 31.4687 1531.87 60.4203L1518.48 377.824C1517.15 409.516 1481.22 427.118 1455.36 408.752L1173.47 208.558C1147.61 190.191 1152.39 150.47 1181.87 138.767L1477.14 21.5573Z" fill="url(#paint4_linear_529_2605)" fill-opacity="0.5"/>
<defs>
<linearGradient id="paint0_linear_529_2605" x1="45.0023" y1="22.6736" x2="1401.16" y2="274.112" gradientUnits="userSpaceOnUse">
<stop stop-color="#90CAF9"/>
<stop offset="1" stop-color="#3588CC"/>
</linearGradient>
<linearGradient id="paint1_linear_529_2605" x1="199.556" y1="426.168" x2="71.11" y2="697.28" gradientUnits="userSpaceOnUse">
<stop stop-color="#BDDFFA"/>
<stop offset="1" stop-color="#B1DBFD" stop-opacity="0"/>
</linearGradient>
<linearGradient id="paint2_linear_529_2605" x1="365.461" y1="-91.1953" x2="72.0595" y2="321.939" gradientUnits="userSpaceOnUse">
<stop stop-color="#BDDFFA"/>
<stop offset="1" stop-color="#B1DBFD" stop-opacity="0"/>
</linearGradient>
<linearGradient id="paint3_linear_529_2605" x1="602.487" y1="443.451" x2="722.298" y2="603.593" gradientUnits="userSpaceOnUse">
<stop stop-color="#BDDFFA"/>
<stop offset="1" stop-color="#B1DBFD" stop-opacity="0"/>
</linearGradient>
<linearGradient id="paint4_linear_529_2605" x1="1534.46" y1="-1.19628" x2="1241.06" y2="411.939" gradientUnits="userSpaceOnUse">
<stop stop-color="#BDDFFA"/>
<stop offset="1" stop-color="#B1DBFD" stop-opacity="0"/>
</linearGradient>
</defs>
</svg>
